<svg width="235" height="237" xmlns="http://www.w3.org/2000/svg" xmlns:xlink="http://www.w3.org/1999/xlink" overflow="hidden"><defs><clipPath id="clip0"><path d="M1037 50 1272 50 1272 287 1037 287Z" fill-rule="evenodd" clip-rule="evenodd"/></clipPath><clipPath id="clip1"><path d="M1038 50 1156 50 1156 286 1038 286Z" fill-rule="evenodd" clip-rule="evenodd"/></clipPath><clipPath id="clip2"><path d="M1038 50 1156 50 1156 286 1038 286Z" fill-rule="evenodd" clip-rule="evenodd"/></clipPath><clipPath id="clip3"><path d="M1038 50 1272 50 1272 286 1038 286Z" fill-rule="evenodd" clip-rule="evenodd"/></clipPath><clipPath id="clip4"><path d="M1038 50 1272 50 1272 286 1038 286Z" fill-rule="evenodd" clip-rule="evenodd"/></clipPath></defs><g clip-path="url(#clip0)" transform="translate(-1037 -50)"><path d="M1041.5 141.734 1128.59 141.735 1155.5 53.5001 1182.41 141.735 1269.5 141.734 1199.04 196.265 1225.96 284.5 1155.5 229.967 1085.04 284.5 1111.96 196.265Z" stroke="#FFC000" stroke-width="1.33333" stroke-miterlimit="8" fill="#FFFFFF" fill-rule="evenodd"/><g clip-path="url(#clip1)"><g clip-path="url(#clip2)"><g clip-path="url(#clip3)"><g clip-path="url(#clip4)"><path d="M531.743 141.267 618.545 141.268 645.367 53.3239 672.19 141.268 758.992 141.267 688.767 195.619 715.591 283.563 645.367 229.21 575.143 283.563 601.968 195.619Z" stroke="#FFFFFF" stroke-width="1.32894" stroke-miterlimit="8" fill="#FFFF00" fill-rule="evenodd" transform="matrix(1 0 -0 1.0033 509.746 0)"/></g></g></g></g></g></svg>